<?xml version="1.0" encoding="UTF-8" standalone="no"?>
<!-- Generator: Adobe Illustrator 15.0.0, SVG Export Plug-In . SVG Version: 6.00 Build 0)  -->

<svg
   xmlns:dc="http://purl.org/dc/elements/1.1/"
   xmlns:cc="http://creativecommons.org/ns#"
   xmlns:rdf="http://www.w3.org/1999/02/22-rdf-syntax-ns#"
   xmlns:svg="http://www.w3.org/2000/svg"
   xmlns="http://www.w3.org/2000/svg"
   xmlns:sodipodi="http://sodipodi.sourceforge.net/DTD/sodipodi-0.dtd"
   xmlns:inkscape="http://www.inkscape.org/namespaces/inkscape"
   version="1.1"
   id="Layer_1"
   x="0px"
   y="0px"
   width="48"
   height="48"
   viewBox="0 0 48 48"
   enable-background="new 0 0 512 512"
   xml:space="preserve"
   inkscape:version="0.91 r13725"
   sodipodi:docname="info.svg"><metadata
     id="metadata9"><rdf:RDF><cc:Work
         rdf:about=""><dc:format>image/svg+xml</dc:format><dc:type
           rdf:resource="http://purl.org/dc/dcmitype/StillImage" /><dc:title></dc:title></cc:Work></rdf:RDF></metadata><defs
     id="defs7" /><sodipodi:namedview
     pagecolor="#ffffff"
     bordercolor="#666666"
     borderopacity="1"
     objecttolerance="10"
     gridtolerance="10"
     guidetolerance="10"
     inkscape:pageopacity="0"
     inkscape:pageshadow="2"
     inkscape:window-width="1313"
     inkscape:window-height="744"
     id="namedview5"
     showgrid="false"
     inkscape:zoom="10.429825"
     inkscape:cx="45.556654"
     inkscape:cy="26.324979"
     inkscape:window-x="53"
     inkscape:window-y="24"
     inkscape:window-maximized="1"
     inkscape:current-layer="Layer_1"
     fit-margin-top="0"
     fit-margin-left="0"
     fit-margin-right="0"
     fit-margin-bottom="0" /><path
     d="M 24.00037,0 C 10.74515,0 0,10.74403 0,24.00066 0,37.25484 10.74515,48 24.00037,48 37.2539,48 48,37.25503 48,24.00066 48,10.74403 37.2539,0 24.00037,0 Z m -3.75328,8.23509 c 0.95053,-0.87637 2.08397,-1.31559 3.39975,-1.31559 1.31597,0 2.44481,0.43931 3.38719,1.31559 0.94303,0.87713 1.41262,1.93397 1.41262,3.168 0,1.23553 -0.47409,2.28741 -1.42434,3.15741 -0.95053,0.86878 -2.07572,1.30322 -3.37547,1.30322 -1.31569,0 -2.44931,-0.43453 -3.39975,-1.30322 -0.95044,-0.86981 -1.42556,-1.92188 -1.42556,-3.15741 -9e-5,-1.23403 0.47522,-2.29068 1.42556,-3.168 z m 11.75831,32.84532 -15.40153,0 0,-2.95407 c 0.42244,-0.0286 0.83681,-0.065 1.24275,-0.10734 0.40669,-0.044 0.75544,-0.11466 1.04785,-0.21497 0.52021,-0.17081 0.88518,-0.41934 1.09696,-0.73997 0.21066,-0.32315 0.31651,-0.7485 0.31651,-1.27809 l 0,-11.10591 c 0,-0.50175 -0.13004,-0.942 -0.38991,-1.32047 -0.25978,-0.37997 -0.58472,-0.68362 -0.97425,-0.912 C 18.651,22.275 18.20793,22.11122 17.61478,21.95438 17.02172,21.795 16.48228,21.69609 15.99515,21.65241 l 0,-1.56638 12.30619,-0.23709 0,15.65925 c 0,0.49987 0.12141,0.92522 0.36525,1.27659 0.24356,0.35025 0.59381,0.61153 1.04831,0.78366 0.32485,0.12815 0.68203,0.243 1.07157,0.34294 0.39018,0.10031 0.79687,0.17212 1.21893,0.21496 l 0,2.95407 0,0 z"
     id="path3"
     style="fill:none;fill-opacity:1"
     inkscape:connector-curvature="0"
     inkscape:export-xdpi="90"
     inkscape:export-ydpi="90" /><path
     d="m 24.135963,-0.02326395 c -13.25522,0 -24.00037019,10.74402995 -24.00037019,24.00065995 0,13.25418 10.74515019,23.999342 24.00037019,23.999342 13.253533,0 23.999633,-10.744972 23.999633,-23.999342 0,-13.25663 -10.7461,-24.00065995 -23.999633,-24.00065995 z m -3.75328,8.23509005 c 0.95053,-0.87637 2.08397,-1.31559 3.39975,-1.31559 1.315973,0 2.444813,0.43931 3.387193,1.31559 0.94303,0.8771305 1.41262,1.9339699 1.41262,3.1679999 0,1.23553 -0.47409,2.28741 -1.42434,3.15741 -0.95053,0.86878 -2.07572,1.30322 -3.375473,1.30322 -1.31569,0 -2.44931,-0.43453 -3.39975,-1.30322 -0.95044,-0.86981 -1.42556,-1.92188 -1.42556,-3.15741 -9e-5,-1.23403 0.47522,-2.2906794 1.42556,-3.1679999 z m 11.758313,32.8453199 -15.401533,0 0,-2.95407 c 0.42244,-0.0286 0.83681,-0.065 1.24275,-0.10734 0.40669,-0.044 0.75544,-0.11466 1.04785,-0.21497 0.52021,-0.17081 0.88518,-0.41934 1.09696,-0.73997 0.21066,-0.32315 0.31651,-0.7485 0.31651,-1.27809 l 0,-11.10591 c 0,-0.50175 -0.13004,-0.942 -0.38991,-1.32047 -0.25978,-0.37997 -0.58472,-0.68362 -0.97425,-0.912 -0.29278,-0.17259 -0.73585,-0.33637 -1.329,-0.49321 -0.59306,-0.15938 -1.1325,-0.25829 -1.61963,-0.30197 l 0,-1.56638 12.306193,-0.23709 0,15.65925 c 0,0.49987 0.12141,0.92522 0.36525,1.27659 0.24356,0.35025 0.59381,0.61153 1.04831,0.78366 0.32485,0.12815 0.68203,0.243 1.07157,0.34294 0.39018,0.10031 0.79687,0.17212 1.21893,0.21496 l 0,2.95407 0,0 z"
     id="path3-5"
     style="fill:#ffffff;fill-opacity:1"
     inkscape:connector-curvature="0"
     inkscape:export-xdpi="90"
     inkscape:export-ydpi="90"
     inkscape:transform-center-x="-0.81355932"
     inkscape:transform-center-y="-0.54237288" /></svg>