<?xml version="1.0" encoding="UTF-8" standalone="no"?>
<!-- Generator: Adobe Illustrator 16.0.0, SVG Export Plug-In . SVG Version: 6.00 Build 0)  -->

<svg
   xmlns:dc="http://purl.org/dc/elements/1.1/"
   xmlns:cc="http://creativecommons.org/ns#"
   xmlns:rdf="http://www.w3.org/1999/02/22-rdf-syntax-ns#"
   xmlns:svg="http://www.w3.org/2000/svg"
   xmlns="http://www.w3.org/2000/svg"
   xmlns:sodipodi="http://sodipodi.sourceforge.net/DTD/sodipodi-0.dtd"
   xmlns:inkscape="http://www.inkscape.org/namespaces/inkscape"
   version="1.1"
   id="Capa_1"
   x="0px"
   y="0px"
   width="48"
   height="32.999641"
   viewBox="0 0 47.999999 32.999641"
   xml:space="preserve"
   inkscape:version="0.91 r13725"
   sodipodi:docname="open.svg"><metadata
     id="metadata41"><rdf:RDF><cc:Work
         rdf:about=""><dc:format>image/svg+xml</dc:format><dc:type
           rdf:resource="http://purl.org/dc/dcmitype/StillImage" /><dc:title></dc:title></cc:Work></rdf:RDF></metadata><defs
     id="defs39" /><sodipodi:namedview
     pagecolor="#ffffff"
     bordercolor="#666666"
     borderopacity="1"
     objecttolerance="10"
     gridtolerance="10"
     guidetolerance="10"
     inkscape:pageopacity="0"
     inkscape:pageshadow="2"
     inkscape:window-width="1313"
     inkscape:window-height="744"
     id="namedview37"
     showgrid="false"
     showborder="true"
     fit-margin-top="0"
     fit-margin-left="0"
     fit-margin-right="0"
     fit-margin-bottom="0"
     inkscape:zoom="7.7821334"
     inkscape:cx="41.255436"
     inkscape:cy="25.093301"
     inkscape:window-x="53"
     inkscape:window-y="24"
     inkscape:window-maximized="1"
     inkscape:current-layer="Capa_1"
     borderlayer="true" /><g
     id="g3"
     transform="matrix(0.09892542,0,0,0.09892542,0,-7.5001296)"
     style="fill:#ffffff"><path
       d="m 483.493,225.607 -66.753,183.79 -366.394,0 68.942,-183.878 c 5.867,-15.604 24.316,-28.399 40.989,-28.399 l 303.26,0 c 16.671,-0.001 25.673,12.822 19.956,28.487 z M 29.407,378.897 90.919,214.886 c 10.244,-27.424 40.064,-48.092 69.357,-48.092 l 264.28,0 c 0,-16.765 -13.562,-30.327 -30.322,-30.327 l -212.278,0 -30.327,-60.651 -121.305,0 C 13.562,75.817 0,89.379 0,106.142 l 0,242.606 c 0,16.433 13.089,29.617 29.407,30.149 z"
       id="path5"
       inkscape:connector-curvature="0"
       style="fill:#ffffff" /></g><g
     id="g7"
     transform="translate(-126.0874,-281.61845)" /><g
     id="g9"
     transform="translate(-126.0874,-281.61845)" /><g
     id="g11"
     transform="translate(-126.0874,-281.61845)" /><g
     id="g13"
     transform="translate(-126.0874,-281.61845)" /><g
     id="g15"
     transform="translate(-126.0874,-281.61845)" /><g
     id="g17"
     transform="translate(-126.0874,-281.61845)" /><g
     id="g19"
     transform="translate(-126.0874,-281.61845)" /><g
     id="g21"
     transform="translate(-126.0874,-281.61845)" /><g
     id="g23"
     transform="translate(-126.0874,-281.61845)" /><g
     id="g25"
     transform="translate(-126.0874,-281.61845)" /><g
     id="g27"
     transform="translate(-126.0874,-281.61845)" /><g
     id="g29"
     transform="translate(-126.0874,-281.61845)" /><g
     id="g31"
     transform="translate(-126.0874,-281.61845)" /><g
     id="g33"
     transform="translate(-126.0874,-281.61845)" /><g
     id="g35"
     transform="translate(-126.0874,-281.61845)" /></svg>