<?xml version="1.0" encoding="UTF-8" standalone="no"?>
<!-- Svg Vector Icons : http://www.onlinewebfonts.com/icon -->

<svg
   xmlns:dc="http://purl.org/dc/elements/1.1/"
   xmlns:cc="http://creativecommons.org/ns#"
   xmlns:rdf="http://www.w3.org/1999/02/22-rdf-syntax-ns#"
   xmlns:svg="http://www.w3.org/2000/svg"
   xmlns="http://www.w3.org/2000/svg"
   xmlns:sodipodi="http://sodipodi.sourceforge.net/DTD/sodipodi-0.dtd"
   xmlns:inkscape="http://www.inkscape.org/namespaces/inkscape"
   version="1.1"
   x="0px"
   y="0px"
   viewBox="0 0 48 41.142857"
   enable-background="new 0 0 1000 1000"
   xml:space="preserve"
   id="svg2"
   inkscape:version="0.91 r13725"
   sodipodi:docname="reload.svg"
   width="48"
   height="41.142857"><defs
     id="defs12" /><sodipodi:namedview
     pagecolor="#ffffff"
     bordercolor="#666666"
     borderopacity="1"
     objecttolerance="10"
     gridtolerance="10"
     guidetolerance="10"
     inkscape:pageopacity="0"
     inkscape:pageshadow="2"
     inkscape:window-width="1313"
     inkscape:window-height="744"
     id="namedview10"
     showgrid="false"
     fit-margin-top="0"
     fit-margin-left="0"
     fit-margin-right="0"
     fit-margin-bottom="0"
     inkscape:zoom="2.0438753"
     inkscape:cx="114.13182"
     inkscape:cy="22.842432"
     inkscape:window-x="53"
     inkscape:window-y="24"
     inkscape:window-maximized="1"
     inkscape:current-layer="svg2" /><metadata
     id="metadata4"> Svg Vector Icons : http://www.onlinewebfonts.com/icon <rdf:RDF><cc:Work
     rdf:about=""><dc:format>image/svg+xml</dc:format><dc:type
       rdf:resource="http://purl.org/dc/dcmitype/StillImage" /><dc:title></dc:title></cc:Work></rdf:RDF></metadata><g
     id="g6"
     transform="matrix(0.04897959,0,0,0.04897959,-0.4897959,-3.9183672)"
     style="fill:#ffffff"><path
       d="m 987.4,466.9 -54,95.1 -54.7,96.4 -0.1,0 c -2.7,4.4 -7.5,7.4 -13.1,7.4 -5.6,0 -10.6,-3.1 -13.3,-7.7 l 0,0 -54.4,-96.1 -54.1,-95.4 c -1.5,-2.4 -2.4,-5.3 -2.4,-8.3 0,-8.7 6.9,-15.7 15.5,-15.7 l 70.8,0 C 800.8,284.2 665.2,163.8 502,163.8 c -63.6,0 -123,18.3 -173.4,50 -6.8,4.9 -15.1,7.9 -24,7.9 -22.8,0 -41.3,-18.8 -41.3,-42 0,-15.9 8.8,-29.8 21.6,-36.9 C 348,103 422.4,80 502.1,80 711,80 883.5,237.7 911.1,442.5 l 63.5,0 c 8.5,0 15.4,7 15.4,15.7 0,3.2 -1,6.2 -2.6,8.7 z m -744.2,24.4 -71.5,0 c -0.1,2.9 -0.1,5.7 -0.1,8.7 0,185.7 147.9,336.2 330.4,336.2 74.4,0 143,-25 198.3,-67.3 0,0 0,0.1 0.1,0.1 7.4,-7.1 17.3,-11.4 28.2,-11.4 22.8,0 41.3,18.8 41.3,42 0,12.4 -5.3,23.7 -13.8,31.4 0,0 0,0 0,0.1 -0.3,0.2 -0.6,0.5 -0.9,0.7 -1,0.8 -2.1,1.6 -3.1,2.4 -69.4,53.8 -156,85.8 -250,85.8 -228,0 -412.8,-188.1 -412.8,-420 0,-2.9 0,-5.8 0.1,-8.8 l -64,0 c -8.5,0 -15.4,-7 -15.4,-15.7 0,-3.1 0.9,-6 2.4,-8.4 l 54.2,-95.4 54.5,-96 0,0 c 2.7,-4.6 7.6,-7.7 13.2,-7.7 5.5,0 10.4,2.9 13.1,7.4 l 0.1,0 54.7,96.3 54,95.2 c 1.6,2.5 2.5,5.5 2.5,8.7 0,8.7 -6.9,15.7 -15.5,15.7 z"
       id="path8"
       inkscape:connector-curvature="0"
       style="fill:#ffffff" /></g></svg>